<svg xmlns="http://www.w3.org/2000/svg" width="1400" height="560" viewBox="0 0 1400 560">
  <rect width="1400" height="560" rx="28" fill="#081426"/>
  <text x="70" y="78" fill="#ffffff" font-family="Arial,sans-serif" font-size="38" font-weight="700">3. Technology stack</text>
  <text x="70" y="118" fill="#9fb4d3" font-family="Arial,sans-serif" font-size="20">The main technologies used to build and run the product</text>
  <g font-family="Arial,sans-serif">
    <g transform="translate(70 175)"><rect width="290" height="135" rx="22" fill="#10233f" stroke="#22c55e"/><text x="28" y="42" fill="#22c55e" font-size="20" font-weight="700">BACKEND</text><text x="28" y="78" fill="#fff" font-size="18">Java 21 • Spring Boot</text><text x="28" y="108" fill="#b9c8dc" font-size="16">JPA • Spring Security • REST APIs</text></g>
    <g transform="translate(390 175)"><rect width="290" height="135" rx="22" fill="#261c3d" stroke="#a78bfa"/><text x="28" y="42" fill="#a78bfa" font-size="20" font-weight="700">AI ENGINEERING</text><text x="28" y="78" fill="#fff" font-size="18">Spring AI • OpenAI • RAG</text><text x="28" y="108" fill="#b9c8dc" font-size="16">Agents • orchestration • QA tools</text></g>
    <g transform="translate(710 175)"><rect width="290" height="135" rx="22" fill="#10233f" stroke="#22d3ee"/><text x="28" y="42" fill="#22d3ee" font-size="20" font-weight="700">FRONTEND</text><text x="28" y="78" fill="#fff" font-size="18">React • TypeScript • Vite</text><text x="28" y="108" fill="#b9c8dc" font-size="16">Product UI • dashboards • admin</text></g>
    <g transform="translate(1030 175)"><rect width="290" height="135" rx="22" fill="#2f2411" stroke="#f59e0b"/><text x="28" y="42" fill="#f59e0b" font-size="20" font-weight="700">AUTOMATION</text><text x="28" y="78" fill="#fff" font-size="18">Playwright</text><text x="28" y="108" fill="#b9c8dc" font-size="16">Browser UAT • screenshots • diagnostics</text></g>
    <g transform="translate(70 345)"><rect width="290" height="135" rx="22" fill="#10233f" stroke="#38bdf8"/><text x="28" y="42" fill="#38bdf8" font-size="20" font-weight="700">DATA</text><text x="28" y="78" fill="#fff" font-size="18">PostgreSQL</text><text x="28" y="108" fill="#b9c8dc" font-size="16">Users • products • runs • evidence</text></g>
    <g transform="translate(390 345)"><rect width="290" height="135" rx="22" fill="#10233f" stroke="#34d399"/><text x="28" y="42" fill="#34d399" font-size="20" font-weight="700">SECURITY</text><text x="28" y="78" fill="#fff" font-size="18">OAuth2 • Google • GitHub SSO</text><text x="28" y="108" fill="#b9c8dc" font-size="16">Roles • tenant isolation • HTTPS</text></g>
    <g transform="translate(710 345)"><rect width="290" height="135" rx="22" fill="#10233f" stroke="#60a5fa"/><text x="28" y="42" fill="#60a5fa" font-size="20" font-weight="700">DELIVERY</text><text x="28" y="78" fill="#fff" font-size="18">Docker • GHCR • GitHub Actions</text><text x="28" y="108" fill="#b9c8dc" font-size="16">Build • deploy • verification gates</text></g>
    <g transform="translate(1030 345)"><rect width="290" height="135" rx="22" fill="#10233f" stroke="#14b8a6"/><text x="28" y="42" fill="#14b8a6" font-size="20" font-weight="700">RUNTIME</text><text x="28" y="78" fill="#fff" font-size="18">AWS EC2 • Nginx • HTTPS</text><text x="28" y="108" fill="#b9c8dc" font-size="16">Health checks • public UAT instance</text></g>
  </g>
</svg>