<svg xmlns="http://www.w3.org/2000/svg" width="1400" height="560" viewBox="0 0 1400 560">
  <rect width="1400" height="560" rx="28" fill="#081426"/>
  <text x="70" y="78" fill="#ffffff" font-family="Arial,sans-serif" font-size="38" font-weight="700">2. How the system is connected</text>
  <text x="70" y="118" fill="#9fb4d3" font-family="Arial,sans-serif" font-size="20">Simple end-to-end architecture</text>
  <g font-family="Arial,sans-serif" text-anchor="middle">
    <g transform="translate(60 190)"><rect width="190" height="160" rx="22" fill="#10233f" stroke="#60a5fa"/><text x="95" y="56" fill="#60a5fa" font-size="20" font-weight="700">USERS</text><text x="95" y="96" fill="#fff" font-size="18">Company / UAT Team</text><text x="95" y="126" fill="#a9b8ce" font-size="15">Platform Admin</text></g>
    <text x="275" y="280" fill="#6ea8fe" font-size="36">→</text>
    <g transform="translate(310 190)"><rect width="190" height="160" rx="22" fill="#10233f" stroke="#22d3ee"/><text x="95" y="56" fill="#22d3ee" font-size="20" font-weight="700">REACT UI</text><text x="95" y="96" fill="#fff" font-size="18">Product workspace</text><text x="95" y="126" fill="#a9b8ce" font-size="15">Login • dashboards</text></g>
    <text x="525" y="280" fill="#6ea8fe" font-size="36">→</text>
    <g transform="translate(560 170)"><rect width="240" height="200" rx="22" fill="#102b23" stroke="#22c55e"/><text x="120" y="50" fill="#22c55e" font-size="20" font-weight="700">SPRING BOOT</text><text x="120" y="88" fill="#fff" font-size="17">Security + tenant APIs</text><text x="120" y="120" fill="#fff" font-size="17">Requirements + execution</text><text x="120" y="152" fill="#fff" font-size="17">Evidence + decisions</text></g>
    <text x="825" y="280" fill="#6ea8fe" font-size="36">→</text>
    <g transform="translate(860 170)"><rect width="210" height="200" rx="22" fill="#261c3d" stroke="#a78bfa"/><text x="105" y="50" fill="#a78bfa" font-size="20" font-weight="700">AI LAYER</text><text x="105" y="92" fill="#fff" font-size="18">Spring AI</text><text x="105" y="124" fill="#fff" font-size="18">RAG + Agents</text><text x="105" y="156" fill="#a9b8ce" font-size="15">OpenAI + fallback</text></g>
    <text x="1095" y="280" fill="#6ea8fe" font-size="36">→</text>
    <g transform="translate(1130 190)"><rect width="210" height="160" rx="22" fill="#2f2411" stroke="#f59e0b"/><text x="105" y="56" fill="#f59e0b" font-size="20" font-weight="700">PLAYWRIGHT</text><text x="105" y="96" fill="#fff" font-size="18">Browser execution</text><text x="105" y="126" fill="#a9b8ce" font-size="15">Evidence capture</text></g>
  </g>
  <g font-family="Arial,sans-serif" text-anchor="middle">
    <rect x="430" y="420" width="260" height="72" rx="18" fill="#0d2038" stroke="#38bdf8"/>
    <text x="560" y="452" fill="#38bdf8" font-size="18" font-weight="700">PostgreSQL + Evidence</text><text x="560" y="478" fill="#b9c8dc" font-size="14">Users • products • runs • traceability</text>
    <rect x="730" y="420" width="260" height="72" rx="18" fill="#0d2038" stroke="#34d399"/>
    <text x="860" y="452" fill="#34d399" font-size="18" font-weight="700">AWS Runtime</text><text x="860" y="478" fill="#b9c8dc" font-size="14">Docker • EC2 • Nginx • HTTPS</text>
  </g>
</svg>