<svg xmlns="http://www.w3.org/2000/svg" width="1500" height="760" viewBox="0 0 1500 760"><rect width="1500" height="760" rx="28" fill="#fff"/><rect x="1" y="1" width="1498" height="758" rx="27" fill="none" stroke="#dbe5f1"/><text x="70" y="78" fill="#0f172a" font-family="Arial,sans-serif" font-size="40" font-weight="700">AI UAT Engineer — M1 to M50 Roadmap</text><text x="70" y="118" fill="#64748b" font-family="Arial,sans-serif" font-size="20">From core UAT foundations to governed self-UAT and release intelligence</text><g font-family="Arial,sans-serif"><g transform="translate(70 175)"><rect width="400" height="150" rx="22" fill="#f0fdfa" stroke="#5eead4"/><text x="28" y="42" fill="#0f766e" font-size="22" font-weight="700">M1–M20 • FOUNDATION</text><text x="28" y="78" fill="#0f172a" font-size="18">Core UAT • RAG • test design • automation</text><text x="28" y="108" fill="#475569" font-size="16">Playwright • evidence • multi-tenant platform</text><text x="28" y="134" fill="#475569" font-size="16">Security • admin • execution • reporting</text></g><g transform="translate(550 175)"><rect width="400" height="150" rx="22" fill="#eff6ff" stroke="#93c5fd"/><text x="28" y="42" fill="#1d4ed8" font-size="22" font-weight="700">M21–M30 • ENTERPRISE</text><text x="28" y="78" fill="#0f172a" font-size="18">Super Admin • authorization • audit • SSO</text><text x="28" y="108" fill="#475569" font-size="16">Integrations • webhooks • release approval</text><text x="28" y="134" fill="#475569" font-size="16">Platform analytics • operational readiness</text></g><g transform="translate(1030 175)"><rect width="400" height="150" rx="22" fill="#faf5ff" stroke="#c4b5fd"/><text x="28" y="42" fill="#7c3aed" font-size="22" font-weight="700">M31–M34 • INTELLIGENCE</text><text x="28" y="78" fill="#0f172a" font-size="18">100-agent workforce foundation</text><text x="28" y="108" fill="#475569" font-size="16">Risk • change • flaky • regression intelligence</text><text x="28" y="134" fill="#475569" font-size="16">Bounded mission workforce selection</text></g><g transform="translate(70 385)"><rect width="400" height="150" rx="22" fill="#fff7ed" stroke="#fdba74"/><text x="28" y="42" fill="#c2410c" font-size="22" font-weight="700">M35–M38 • INTEGRATIONS</text><text x="28" y="78" fill="#0f172a" font-size="18">Enterprise integration expansion</text><text x="28" y="108" fill="#475569" font-size="16">Tenant-safe planning • routing • delivery</text><text x="28" y="134" fill="#475569" font-size="16">External capability catalog and reliability</text></g><g transform="translate(550 385)"><rect width="400" height="150" rx="22" fill="#fefce8" stroke="#fde68a"/><text x="28" y="42" fill="#a16207" font-size="22" font-weight="700">M39–M42 • GOVERNANCE</text><text x="28" y="78" fill="#0f172a" font-size="18">Compliance • approvals • audit expansion</text><text x="28" y="108" fill="#475569" font-size="16">Policy enforcement • human oversight</text><text x="28" y="134" fill="#475569" font-size="16">Traceable enterprise release controls</text></g><g transform="translate(1030 385)"><rect width="400" height="150" rx="22" fill="#ecfeff" stroke="#67e8f9"/><text x="28" y="42" fill="#0e7490" font-size="22" font-weight="700">M43–M46 • SCALE</text><text x="28" y="78" fill="#0f172a" font-size="18">Quotas • recovery • observability</text><text x="28" y="108" fill="#475569" font-size="16">SLO guardrails • health • operational resilience</text><text x="28" y="134" fill="#475569" font-size="16">Stable platform execution under load</text></g><g transform="translate(310 595)"><rect width="880" height="105" rx="24" fill="#ecfdf5" stroke="#86efac"/><text x="440" y="40" text-anchor="middle" fill="#15803d" font-size="23" font-weight="700">M47–M50 • RELEASE INTELLIGENCE & SELF-UAT</text><text x="440" y="72" text-anchor="middle" fill="#0f172a" font-size="18">Multi-agent review • prediction/learning • self-UAT • governed autonomous release gate</text><text x="440" y="96" text-anchor="middle" fill="#475569" font-size="15">AI recommends. Deterministic policy controls. Human release authority remains.</text></g></g></svg>